<?xml version="1.0" encoding="iso-8859-1"?>
<!-- Generator: Adobe Illustrator 19.0.0, SVG Export Plug-In . SVG Version: 6.00 Build 0)  -->
<svg version="1.1" id="Capa_1" xmlns="http://www.w3.org/2000/svg" xmlns:xlink="http://www.w3.org/1999/xlink" x="0px" y="0px"
	 viewBox="0 0 512 512" style="enable-background:new 0 0 512 512;" xml:space="preserve">
<circle style="fill:#FFCA28;" cx="256" cy="256" r="256"/>
<path style="fill:#263238;" d="M351.68,128.32h-192c-44.183,0.12-79.902,36.034-79.783,80.217s36.034,79.902,80.217,79.783
	c23.818-0.065,46.369-10.739,61.518-29.119c0.384-0.512,0.768-1.024,1.12-1.568L255.68,217.6l32.896,39.968
	c0.344,0.543,0.718,1.066,1.12,1.568c28.065,34.124,78.479,39.036,112.604,10.971s39.036-78.479,10.971-112.604
	C398.119,139.079,375.535,128.379,351.68,128.32z"/>
<path d="M256,512C114.615,512,0,397.385,0,256S114.615,0,256,0s256,114.615,256,256C511.841,397.319,397.319,511.841,256,512z
	 M256,32C132.288,32,32,132.288,32,256s100.288,224,224,224s224-100.288,224-224C479.859,132.347,379.653,32.141,256,32z"/>
<path d="M352,288c-23.986,0.041-46.725-10.682-61.952-29.216c-0.427-0.512-0.811-1.024-1.152-1.536L256,217.216l-32.928,40.032
	c-0.337,0.538-0.711,1.051-1.12,1.536c-28.047,34.139-78.459,39.077-112.598,11.03s-39.077-78.459-11.03-112.598
	C113.489,138.757,136.11,128.041,160,128h192c44.183,0,80,35.817,80,80S396.183,288,352,288z M315.904,239.808
	c17.567,19.853,47.903,21.707,67.756,4.139s21.707-47.903,4.139-67.756C378.723,165.934,365.697,160.042,352,160H160
	c-26.51,0.084-47.932,21.642-47.848,48.152s21.642,47.932,48.152,47.848c13.71-0.043,26.748-5.948,35.824-16.224
	c0.292-0.465,0.624-0.904,0.992-1.312l46.528-56.608c6.025-6.822,16.44-7.468,23.262-1.442c0.51,0.451,0.992,0.932,1.442,1.442
	l46.528,56.608C315.256,238.884,315.599,239.334,315.904,239.808z"/>
<path d="M256,416c-8.837,0-16-7.163-16-16s7.163-16,16-16c33.948,0.183,66.537-13.326,90.4-37.472
	c5.764-6.698,15.867-7.454,22.564-1.69c6.698,5.764,7.454,15.867,1.69,22.564c-0.466,0.542-0.968,1.051-1.502,1.526
	C339.317,399.223,298.519,416.195,256,416z"/>
<g>
</g>
<g>
</g>
<g>
</g>
<g>
</g>
<g>
</g>
<g>
</g>
<g>
</g>
<g>
</g>
<g>
</g>
<g>
</g>
<g>
</g>
<g>
</g>
<g>
</g>
<g>
</g>
<g>
</g>
</svg>
