<svg height="512pt" viewBox="0 0 512 512.01067" width="512pt" xmlns="http://www.w3.org/2000/svg"><path d="m503.898438 231.476562-236.800782-226.984374c-6.1875-5.976563-16-5.976563-22.1875 0l-237.011718 227.199218c-5.121094 4.90625-7.89453175 11.945313-7.89453175 18.984375 0 14.722657 11.94921875 26.667969 26.66796875 26.667969h37.332031v192c0 23.46875 19.203125 42.667969 42.667969 42.667969h298.667969c23.464844 0 42.664062-19.199219 42.664062-42.667969v-192h37.335938c14.71875 0 26.664062-11.945312 26.664062-26.667969 0-7.039062-2.773437-14.078125-8.105468-19.199219zm0 0" fill="#eceff1"/><path d="m192.003906 341.34375h128v170.667969h-128zm0 0" fill="#4caf50"/><path d="m410.671875 512.011719h-309.332031c-20.585938 0-37.335938-16.746094-37.335938-37.335938v-197.332031h-37.332031c-14.699219 0-26.66796875-11.96875-26.66796875-26.667969 0-7.058593 2.88281275-13.972656 7.89453175-18.984375l237.035156-227.242187c6.1875-5.933594 15.957031-5.933594 22.144531 0l236.800781 226.984375c5.246094 5.269531 8.125 12.183594 8.125 19.242187 0 14.699219-11.964844 26.667969-26.664062 26.667969h-37.335938v197.332031c0 20.589844-16.746094 37.335938-37.332031 37.335938zm-370.792969-266.667969h40.125c8.832032 0 16 7.167969 16 16v213.332031c0 2.902344 2.433594 5.335938 5.335938 5.335938h309.332031c2.902344 0 5.332031-2.433594 5.332031-5.335938v-213.332031c0-8.832031 7.167969-16 16-16h40.128906l-216.128906-207.167969zm0 0"/><path d="m304.003906 512.011719h-96c-20.585937 0-37.332031-16.746094-37.332031-37.335938v-117.332031c0-20.585938 16.746094-37.332031 37.332031-37.332031h96c20.589844 0 37.335938 16.746093 37.335938 37.332031v117.332031c0 20.589844-16.746094 37.335938-37.335938 37.335938zm-96-160c-2.941406 0-5.332031 2.386719-5.332031 5.332031v117.332031c0 2.945313 2.390625 5.335938 5.332031 5.335938h96c2.945313 0 5.335938-2.390625 5.335938-5.335938v-117.332031c0-2.945312-2.390625-5.332031-5.335938-5.332031zm0 0"/></svg>